<svg width="32" height="32" viewBox="0 0 32 32" fill="none" xmlns="http://www.w3.org/2000/svg">
<path d="M5.4327 3.99172C5.51034 2.61827 5.83842 2.02102 6.77926 1.5414C7.79159 1.02519 9.38825 1.26542 11.267 2.2168C12.0762 2.62678 12.1586 2.63512 13.5768 2.4533C15.4619 2.21152 17.8887 2.21238 19.6286 2.45551C20.9443 2.63938 21.0307 2.63019 21.8419 2.21936C24.5087 0.868895 26.6142 0.957256 27.3766 2.45159C27.7571 3.19748 27.8278 5.13294 27.5327 6.72926C27.3691 7.61424 27.3864 7.72474 27.7806 8.30548C30.5535 12.3918 28.5555 19.0155 23.8039 21.4873C23.4403 21.6765 23.1339 21.7936 22.8842 21.8889C22.1174 22.1817 21.8846 22.2707 22.1664 23.6184C22.3022 24.2667 22.4656 25.8784 22.5299 27.2003C22.646 29.5896 22.6443 29.6063 22.2252 30.0937C21.6548 30.7568 20.8327 30.768 20.2756 30.1203C19.9123 29.6979 19.8768 29.4984 19.8768 27.8687C19.8768 25.4603 19.6128 23.8595 18.9891 22.4877C18.2474 20.8553 18.7972 20.2467 20.4935 19.8819C22.8512 19.3747 24.6927 17.9196 25.7191 15.7528C26.695 13.6931 26.842 10.8467 25.0778 9.11556C24.576 8.51932 24.5411 7.97927 24.8994 6.35078C25.0332 5.74212 25.1455 4.9569 25.1488 4.60566C25.1539 4.05096 25.1034 3.9672 24.7627 3.9672C24.5471 3.9672 23.7234 4.28082 22.9324 4.66406L21.67 5.27592C21.5552 5.33154 21.4268 5.35292 21.3002 5.33839C18.0902 4.96994 15.04 4.96424 11.8143 5.33983C11.6872 5.35463 11.5582 5.33324 11.443 5.27735L10.1813 4.66508C9.39029 4.28115 8.56659 3.9672 8.35106 3.9672C7.85271 3.9672 7.84522 4.33512 8.29946 6.52103C8.57694 7.85603 8.76366 8.1535 7.96151 9.22095C6.75917 10.821 6.45883 12.8079 7.10359 14.8955C7.91622 17.5261 9.90617 19.3033 12.7038 19.8963C14.3903 20.2537 14.8311 20.7201 14.1871 22.654C13.6802 24.1759 13.3596 24.5681 12.6229 24.5681C11.6317 24.5681 11.0108 23.7095 11.3525 22.8109C11.503 22.4149 11.4582 22.3727 10.5296 22.034C7.69506 21.0005 5.52702 18.6841 4.53579 15.6297C3.76965 13.2691 4.10675 10.1965 5.33583 8.33936C5.75431 7.70703 5.76079 7.6534 5.5655 6.44288C5.45501 5.75762 5.39525 4.6547 5.4327 3.99172Z" fill="white"/>
<path d="M4.44287 21.2605C4.0344 20.6479 3.20658 20.4823 2.59387 20.8908C1.98118 21.2992 1.8156 22.1271 2.22407 22.7397C2.52563 23.1921 2.88639 23.5637 3.19275 23.87C3.24923 23.9265 3.30411 23.9811 3.3577 24.0343C3.61432 24.2892 3.84091 24.5143 4.06848 24.7815C4.57183 25.3723 5.07398 26.168 5.35936 27.5949C5.48648 28.2305 5.94335 28.5729 6.1965 28.7225C6.47103 28.8847 6.77099 28.9803 7.01783 29.0425C7.52278 29.1699 8.13575 29.236 8.71748 29.2745C9.3561 29.3169 10.0481 29.3307 10.6668 29.3344C10.6673 30.0703 11.264 30.6668 12.0001 30.6668C12.7365 30.6668 13.3335 30.0699 13.3335 29.3335V28.0001C13.3335 27.2637 12.7365 26.6668 12.0001 26.6668C11.8744 26.6668 11.7385 26.6672 11.5944 26.6677C10.8119 26.6701 9.792 26.6732 8.89374 26.6137C8.46058 26.5851 8.1045 26.5444 7.84338 26.4947C7.44127 24.9161 6.79166 23.8659 6.09847 23.0521C5.79204 22.6925 5.47474 22.3779 5.21664 22.1219C5.16832 22.074 5.12208 22.0281 5.07836 21.9844C4.78056 21.6867 4.58576 21.4749 4.44287 21.2605Z" fill="white"/>
</svg>
