<svg width="32" height="32" viewBox="0 0 32 32" fill="none" xmlns="http://www.w3.org/2000/svg">
<g clip-path="url(#clip0_5_64)">
<path fill-rule="evenodd" clip-rule="evenodd" d="M32 30.5455H24.9276V20.3188C24.9276 17.642 23.8213 15.8147 21.3885 15.8147C19.5278 15.8147 18.4929 17.0478 18.0113 18.2363C17.8307 18.6628 17.8589 19.2571 17.8589 19.8513V30.5455H10.8523C10.8523 30.5455 10.9426 12.43 10.8523 10.7833H17.8589V13.8848C18.2728 12.5287 20.5117 10.5933 24.0847 10.5933C28.5174 10.5933 32 13.4359 32 19.557V30.5455ZM3.76669 8.31143H3.72155C1.46379 8.31143 0 6.80071 0 4.88578C0 2.93359 1.50705 1.45456 3.80997 1.45456C6.111 1.45456 7.52587 2.92989 7.57102 4.88021C7.57102 6.79514 6.111 8.31143 3.76669 8.31143ZM0.807129 10.7833H7.04421V30.5455H0.807129V10.7833Z" fill="#F5F5F5"/>
</g>
<defs>
<clipPath id="clip0_5_64">
<rect width="32" height="32" fill="white"/>
</clipPath>
</defs>
</svg>
