<svg width="32" height="32" viewBox="0 0 32 32" fill="none" xmlns="http://www.w3.org/2000/svg">
<path d="M8.01867 10.6748C8.17103 9.46987 9.73703 7.83219 10.9798 8.01391L10.9779 8.01192C12.1873 8.24176 13.1448 10.3235 13.6847 11.2595C14.0672 11.9387 13.8188 12.6268 13.462 12.9172C12.9807 13.3051 12.228 13.8404 12.3859 14.3779C12.6667 15.3333 16 18.6667 17.6395 19.6143C18.26 19.9729 18.71 19.0269 19.0943 18.5423C19.3735 18.1695 20.0621 17.9467 20.7397 18.3147C21.7517 18.904 22.7051 19.5889 23.5867 20.36C24.0269 20.728 24.1303 21.2719 23.8252 21.8467C23.2879 22.8591 21.7337 24.1941 20.6056 23.9228C18.6352 23.4491 10.6667 20.36 8.10711 11.4107C7.96316 10.9873 7.9994 10.8273 8.01867 10.6748Z" fill="white"/>
<path fill-rule="evenodd" clip-rule="evenodd" d="M16.0002 30.6667C14.3687 30.6667 13.466 30.4916 12.0002 30L9.19274 31.4037C7.41966 32.2903 5.3335 31.0009 5.3335 29.0185V26C2.46223 23.3227 1.3335 20.2356 1.3335 16C1.3335 7.89984 7.89999 1.33334 16.0002 1.33334C24.1003 1.33334 30.6668 7.89984 30.6668 16C30.6668 24.1001 24.1003 30.6667 16.0002 30.6667ZM8.00016 24.8404L7.1521 24.0496C4.92132 21.9696 4.00016 19.6441 4.00016 16C4.00016 9.3726 9.37275 4.00001 16.0002 4.00001C22.6276 4.00001 28.0002 9.3726 28.0002 16C28.0002 22.6275 22.6276 28 16.0002 28C14.6859 28 14.0695 27.8813 12.8481 27.4717L11.7981 27.1196L8.00016 29.0185V24.8404Z" fill="white"/>
</svg>
